<?xml version="1.0" standalone="no"?>
<!DOCTYPE svg PUBLIC "-//W3C//DTD SVG 20010904//EN"
 "http://www.w3.org/TR/2001/REC-SVG-20010904/DTD/svg10.dtd">
<svg version="1.0" xmlns="http://www.w3.org/2000/svg"
 width="2883.000000pt" height="2606.000000pt" viewBox="0 0 2883.000000 2606.000000"
 preserveAspectRatio="xMidYMid meet">

<g transform="translate(0.000000,2606.000000) scale(0.100000,-0.100000)"
fill="#000000" stroke="none">
<path d="M6735 26050 c-121 -3 -226 -9 -232 -13 -10 -7 -13 -310 -13 -1465 l0
-1457 4900 -6972 4900 -6972 -54 -72 c-109 -145 -204 -361 -248 -562 -31 -147
-31 -427 0 -574 125 -577 558 -1010 1135 -1135 147 -31 427 -31 574 0 577 125
1010 558 1135 1135 18 84 22 134 22 287 0 153 -4 203 -22 287 -125 577 -558
1011 -1135 1135 -83 18 -135 22 -282 22 -189 0 -245 -7 -403 -51 -51 -14 -94
-24 -96 -22 -2 2 -2176 3101 -4830 6887 l-4826 6882 2 908 3 907 1063 3 1062
2 0 409 0 409 -182 6 c-212 8 -1905 27 -2113 24 -77 -1 -239 -4 -360 -8z
m10885 -16972 c149 -37 289 -119 401 -235 165 -170 240 -356 240 -593 0 -237
-75 -423 -240 -593 -112 -117 -249 -197 -406 -238 -112 -29 -298 -29 -410 0
-157 41 -294 121 -406 238 -165 170 -240 356 -240 593 0 237 75 423 240 593
215 223 522 311 821 235z"/>
<path d="M10470 22695 c0 -1864 4 -3305 9 -3299 4 5 635 894 1401 1977 l1393
1967 1959 0 c1234 0 1958 -4 1958 -10 0 -5 -768 -1095 -1706 -2422 -939 -1327
-1731 -2448 -1761 -2490 l-55 -78 2479 -3525 2478 -3525 1348 0 1347 0 0 7339
0 7339 -892 6 c-491 3 -2099 8 -3573 11 -1474 3 -3514 8 -4532 12 l-1853 6 0
-3308z"/>
<path d="M6470 15167 l0 -3907 2284 0 2284 0 349 -442 c192 -244 352 -449 356
-455 5 -8 -13 -40 -49 -85 -274 -351 -373 -808 -268 -1239 101 -419 390 -776
778 -964 112 -54 210 -87 346 -116 150 -32 419 -33 567 -1 620 134 1071 618
1154 1239 15 112 6 372 -16 473 -90 410 -333 749 -684 957 -305 181 -691 245
-1031 173 -52 -11 -96 -17 -97 -13 -3 7 -5959 8272 -5969 8282 -2 2 -4 -1754
-4 -3902z m2102 -352 c674 -979 1381 -2006 1571 -2282 l346 -503 -1584 0
-1585 0 0 2297 c0 1931 2 2295 14 2283 7 -8 564 -816 1238 -1795z m4467 -4606
c424 -99 712 -536 637 -967 -61 -352 -314 -617 -665 -698 -96 -23 -268 -20
-374 5 -444 105 -729 545 -643 993 80 416 463 717 881 692 44 -3 118 -14 164
-25z"/>
<path d="M26544 5220 c-865 -60 -1373 -651 -1314 -1529 18 -269 71 -446 185
-616 216 -325 663 -537 1715 -810 334 -87 590 -172 741 -247 106 -52 132 -70
198 -137 87 -88 133 -160 171 -269 43 -122 53 -201 47 -368 -10 -266 -87 -454
-250 -617 -213 -213 -489 -306 -906 -307 -408 0 -706 98 -975 321 -325 270
-559 709 -675 1264 -12 55 -23 110 -26 123 -5 21 -9 22 -140 22 -73 0 -135 -3
-137 -7 -2 -5 1 -343 8 -753 7 -410 13 -856 13 -992 l1 -248 123 0 122 0 130
217 c72 119 138 226 147 237 17 21 17 21 65 -26 177 -172 468 -327 746 -399
233 -60 577 -84 843 -60 948 88 1467 646 1441 1551 -8 269 -57 476 -165 684
-152 295 -450 537 -812 659 -185 62 -733 213 -845 232 -66 11 -332 91 -450
135 -140 51 -349 154 -444 218 -313 211 -421 459 -345 795 58 253 224 444 467
538 263 101 664 101 967 -1 501 -168 878 -632 1088 -1335 l37 -125 132 0 c131
0 133 0 133 23 0 49 -70 1627 -76 1695 l-6 72 -122 0 c-105 0 -125 -3 -138
-17 -8 -10 -66 -99 -128 -198 -62 -99 -116 -184 -120 -188 -4 -5 -43 20 -86
55 -154 124 -299 209 -472 278 -260 103 -587 151 -888 130z"/>
<path d="M0 4950 l0 -160 208 0 c348 -1 424 -25 484 -155 l23 -50 3 -1939 c2
-1725 1 -1946 -13 -2000 -23 -89 -56 -133 -123 -164 -56 -27 -59 -27 -319 -30
l-263 -3 0 -160 0 -159 1090 0 1090 0 0 159 0 160 -257 3 c-248 3 -260 4 -318
28 -43 18 -67 36 -87 65 -56 82 -58 104 -58 746 l0 586 392 407 c215 224 395
405 399 404 16 -5 1302 -1893 1341 -1966 58 -113 49 -185 -29 -229 -65 -36
-132 -43 -398 -43 l-255 0 0 -160 0 -160 1150 0 1150 0 0 160 0 160 -118 0
c-172 0 -332 23 -394 57 -70 38 -130 93 -197 182 -44 57 -1698 2478 -1734
2537 -10 17 1116 1171 1240 1270 119 97 195 143 314 195 155 67 318 99 512 99
l87 0 0 160 0 160 -1040 0 -1040 0 0 -160 0 -160 113 0 c132 0 320 -16 386
-32 25 -6 58 -19 72 -29 77 -54 78 -205 1 -309 -16 -22 -429 -457 -917 -966
-489 -509 -921 -960 -961 -1002 l-73 -77 2 1105 2 1105 26 56 c31 66 72 100
149 125 44 13 104 18 298 22 l242 4 0 159 0 159 -1090 0 -1090 0 0 -160z"/>
<path d="M5320 4951 l0 -159 248 -4 c218 -4 255 -8 314 -27 75 -24 115 -62
145 -140 17 -43 18 -154 21 -1961 2 -1375 0 -1933 -8 -1980 -14 -82 -55 -158
-99 -184 -64 -37 -134 -46 -383 -46 l-238 0 0 -160 0 -160 2100 0 2100 0 0 43
c1 23 23 445 49 937 27 492 46 898 44 903 -2 4 -60 7 -128 7 l-124 0 -11 -57
c-167 -841 -371 -1245 -699 -1383 -244 -103 -691 -156 -1238 -147 -448 7 -530
30 -590 162 -17 38 -18 100 -21 1014 l-2 974 162 -7 c372 -15 574 -80 728
-235 134 -135 202 -318 245 -663 l6 -48 145 0 144 0 -2 1098 -3 1097 -142 3
-141 3 -7 -58 c-52 -474 -215 -727 -535 -832 -119 -39 -211 -52 -408 -58
l-193 -6 3 859 c3 802 4 862 21 899 36 80 91 116 215 142 61 13 141 16 392 16
553 0 860 -44 1096 -158 156 -76 269 -200 382 -422 112 -220 163 -398 237
-830 l6 -33 149 0 150 0 -5 58 c-3 31 -24 422 -46 867 -22 446 -42 816 -44
823 -3 9 -416 12 -2020 12 l-2015 0 0 -159z"/>
<path d="M9890 4952 l0 -159 138 -6 c264 -12 338 -54 492 -278 32 -47 374
-589 760 -1205 l701 -1119 -3 -770 -3 -770 -30 -60 c-27 -55 -36 -63 -99 -95
l-69 -35 -298 -3 -299 -3 0 -160 0 -159 1170 0 1171 0 -3 157 -3 158 -290 5
c-278 5 -292 6 -343 29 -28 13 -65 39 -82 57 -61 70 -60 60 -60 917 l0 779
627 1076 c344 592 656 1122 692 1177 90 136 180 226 257 255 84 31 193 49 307
50 l98 0 -3 158 -3 157 -912 3 -913 2 0 -159 0 -158 178 -6 c315 -10 439 -63
488 -211 22 -64 14 -154 -21 -236 -25 -59 -926 -1641 -949 -1667 -9 -10 -144
195 -566 859 -305 479 -574 905 -597 947 -37 66 -43 84 -43 138 0 51 4 66 25
91 51 61 165 82 442 82 l174 0 -3 158 -3 157 -1062 3 -1063 2 0 -158z"/>
<path d="M14870 4951 l0 -159 243 -5 c255 -5 317 -14 380 -59 41 -29 76 -107
88 -196 6 -51 9 -724 7 -1967 -3 -1791 -4 -1893 -21 -1943 -23 -69 -75 -126
-135 -148 -39 -15 -89 -18 -304 -22 l-258 -3 0 -160 0 -159 1085 0 1085 0 0
159 0 160 -257 3 c-246 3 -260 4 -311 27 -65 29 -106 75 -129 143 -15 48 -17
114 -20 653 l-3 600 392 405 c215 223 396 405 402 405 15 0 1311 -1898 1349
-1975 68 -139 24 -220 -135 -250 -28 -6 -163 -10 -299 -10 l-249 0 0 -160 0
-160 1145 0 1145 0 0 160 0 160 -112 0 c-157 0 -324 22 -379 50 -86 44 -139
92 -222 203 -120 160 -1729 2526 -1725 2536 4 12 898 933 1066 1099 279 276
527 409 820 441 56 6 139 11 182 11 l80 0 0 160 0 160 -1035 0 -1035 0 0 -160
0 -160 113 0 c129 -1 297 -14 377 -31 67 -14 113 -56 130 -119 15 -57 -6 -152
-49 -214 -17 -24 -464 -496 -993 -1047 l-963 -1004 -3 1035 c-1 598 1 1068 7
1114 6 53 19 97 38 135 24 47 37 60 83 83 74 37 157 48 393 48 l197 0 0 160 0
160 -1085 0 -1085 0 0 -159z"/>
<path d="M20187 5103 c-4 -3 -7 -75 -7 -160 l0 -153 208 0 c243 0 327 -10 402
-48 48 -23 59 -35 85 -86 l30 -60 3 -1950 c3 -2174 8 -2031 -64 -2114 -58 -68
-90 -75 -394 -81 l-265 -6 -3 -157 -3 -158 2100 0 2100 0 5 53 c6 49 96 1767
96 1815 0 22 -1 23 -127 20 l-128 -3 -31 -150 c-78 -372 -160 -640 -258 -840
-131 -266 -275 -402 -511 -479 -229 -74 -616 -116 -1075 -116 -396 0 -545 22
-611 91 -78 80 -73 17 -77 1098 l-3 964 164 -6 c626 -25 864 -213 956 -756 12
-68 21 -139 21 -157 l0 -34 145 0 145 0 0 1100 0 1100 -140 0 c-104 0 -142 -3
-144 -12 -2 -7 -11 -68 -20 -134 -21 -157 -55 -275 -113 -394 -86 -176 -245
-305 -445 -360 -120 -33 -264 -50 -420 -50 l-148 0 0 808 c0 515 4 830 11 872
19 117 71 176 182 206 193 52 902 36 1209 -26 202 -41 356 -103 459 -184 122
-96 280 -357 357 -591 45 -137 93 -338 118 -502 l18 -113 148 0 c147 0 148 0
148 23 0 46 -80 1615 -86 1675 l-6 62 -2012 0 c-1107 0 -2016 -3 -2019 -7z"/>
</g>
</svg>
